# File created by Luuv tsx 1.1.4
# Created on: Mon Mar 16 14:04:49 2009 -1
# Vertices: 80
# Texture vertices: 176
# Normals: 80
# Faces: 82

mtllib couchtable.mtl
v 0.300000 0.470000 -0.500250
v -0.300000 0.470000 -0.500249
v -0.350000 0.470000 -0.550249
v 0.350000 0.470000 -0.550250
v 0.350000 0.500000 0.550250
v 0.350000 0.500000 -0.550250
v -0.350000 0.500000 -0.550249
v -0.350000 0.500000 0.550250
v -0.300000 0.420000 -0.500249
v 0.300000 0.420000 -0.500249
v 0.223000 0.420000 -0.447249
v 0.251284 0.420000 -0.435534
v -0.251284 0.420000 -0.435534
v -0.223000 0.420000 -0.447249
v -0.350000 0.470000 0.550250
v 0.350000 0.470000 0.550250
v -0.300000 0.470000 0.500249
v 0.300000 0.470000 0.500250
v 0.300000 0.420000 0.500250
v -0.300000 0.420000 0.500249
v -0.251284 0.420000 0.435535
v -0.223000 0.420000 0.447251
v 0.223000 0.420000 0.447251
v 0.251284 0.420000 0.435535
v -0.263000 0.420000 0.407250
v -0.263000 0.420000 -0.407249
v 0.263000 0.420000 0.407250
v 0.263000 0.420000 -0.407249
v 0.304307 0.000000 -0.472556
v 0.304307 0.000000 -0.441942
v 0.310648 0.000000 -0.457249
v 0.273693 0.000000 -0.441942
v 0.273693 0.000000 -0.472556
v 0.267352 0.000000 -0.457249
v 0.289000 0.000000 -0.435601
v 0.289000 0.000000 -0.478897
v -0.194716 0.420000 -0.435534
v 0.194716 0.420000 -0.435534
v -0.183000 0.420000 -0.407249
v 0.183000 0.420000 -0.407249
v -0.194716 0.420000 -0.378965
v -0.194716 0.420000 0.378967
v 0.194716 0.420000 0.378967
v 0.194716 0.420000 -0.378965
v 0.223000 0.420000 -0.367249
v 0.223000 0.420000 0.367251
v 0.251284 0.420000 0.378967
v 0.251284 0.420000 -0.378965
v -0.267352 0.000000 -0.457249
v -0.273693 0.000000 -0.472556
v -0.273693 0.000000 -0.441942
v -0.194716 0.420000 0.435535
v 0.194716 0.420000 0.435535
v -0.304307 0.000000 -0.441942
v -0.304307 0.000000 -0.472556
v -0.310648 0.000000 -0.457249
v -0.223000 0.420000 -0.367249
v -0.223000 0.420000 0.367251
v -0.251284 0.420000 0.378967
v -0.251284 0.420000 -0.378965
v 0.273693 0.000000 0.441943
v 0.289000 0.000000 0.435603
v 0.183000 0.420000 0.407250
v 0.267352 0.000000 0.457251
v 0.273693 0.000000 0.472558
v 0.289000 0.000000 0.478898
v 0.304307 0.000000 0.472558
v 0.310648 0.000000 0.457251
v 0.304307 0.000000 0.441943
v -0.304307 0.000001 0.441944
v -0.289000 0.000001 0.435603
v -0.310648 0.000001 0.457251
v -0.304307 0.000001 0.472558
v -0.289000 0.000001 0.478898
v -0.273693 0.000001 0.441943
v -0.273693 0.000001 0.472558
v -0.267352 0.000001 0.457251
v -0.183000 0.420000 0.407251
v -0.289000 0.000000 -0.478897
v -0.289000 0.000000 -0.435601

vt 0.397746 0.444618
vt 0.885359 0.950034
vt 0.424119 0.079793
vt 0.054775 0.444618
vt 0.873359 0.950034
vt 0.023527 0.079795
vt 0.030569 0.425766
vt 0.958651 0.950034
vt 0.023527 0.067793
vt 0.421949 0.425766
vt 0.946647 0.950034
vt 0.479913 0.067786
vt 0.928828 0.398507
vt 0.440273 0.950034
vt 0.948299 0.067793
vt 0.928828 0.950034
vt 0.440273 0.428193
vt 0.479913 0.049966
vt 0.976473 0.950034
vt 0.023527 0.049971
vt 0.831655 0.428193
vt 0.976467 0.398507
vt 0.491913 0.067793
vt 0.831655 0.950034
vt 0.054773 0.444619
vt 0.843659 0.950034
vt 0.023530 0.109498
vt 0.397746 0.444618
vt 0.915063 0.950034
vt 0.424119 0.109497
vt 0.358731 0.450855
vt 0.105691 0.402247
vt 0.375532 0.457813
vt 0.087702 0.399580
vt 0.279427 0.399580
vt 0.076987 0.457813
vt 0.261438 0.402246
vt 0.093789 0.450855
vt 0.030569 0.947609
vt 0.958647 0.398507
vt 0.491913 0.049972
vt 0.421951 0.947610
vt 0.946647 0.398507
vt 0.948299 0.049972
vt 0.054775 0.928759
vt 0.873359 0.438487
vt 0.436119 0.109498
vt 0.397746 0.928759
vt 0.885359 0.438489
vt 0.836707 0.109498
vt 0.397745 0.928759
vt 0.915063 0.438489
vt 0.836707 0.079798
vt 0.054773 0.928759
vt 0.843655 0.438487
vt 0.436119 0.079798
vt 0.076986 0.915563
vt 0.556812 0.399580
vt 0.093789 0.922524
vt 0.574803 0.402246
vt 0.417808 0.402247
vt 0.358731 0.922524
vt 0.435798 0.399580
vt 0.375532 0.915563
vt 0.070027 0.898762
vt 0.538636 0.398992
vt 0.297605 0.398992
vt 0.070027 0.474617
vt 0.453975 0.398994
vt 0.382492 0.898762
vt 0.382492 0.474617
vt 0.069525 0.398994
vt 0.104110 0.147676
vt 0.084444 0.147888
vt 0.099690 0.130036
vt 0.094272 0.147358
vt 0.098245 0.139771
vt 0.117328 0.125613
vt 0.143057 0.152595
vt 0.121750 0.143254
vt 0.123484 0.151116
vt 0.123193 0.133518
vt 0.133216 0.152595
vt 0.074611 0.148293
vt 0.107592 0.124171
vt 0.152745 0.150851
vt 0.113845 0.149118
vt 0.243629 0.405939
vt 0.110590 0.457813
vt 0.341928 0.457813
vt 0.123499 0.405940
vt 0.225649 0.408671
vt 0.117551 0.474615
vt 0.334968 0.474615
vt 0.141480 0.408671
vt 0.207463 0.408671
vt 0.110590 0.491418
vt 0.110590 0.881959
vt 0.628774 0.408671
vt 0.363834 0.408671
vt 0.341928 0.881961
vt 0.341928 0.491418
vt 0.159667 0.408671
vt 0.358731 0.498377
vt 0.033195 0.400722
vt 0.177565 0.405449
vt 0.345936 0.405449
vt 0.490305 0.400722
vt 0.358731 0.874999
vt 0.472133 0.399973
vt 0.375532 0.881961
vt 0.375532 0.491418
vt 0.051365 0.399973
vt 0.233915 0.152595
vt 0.243936 0.133516
vt 0.243645 0.151116
vt 0.245380 0.143253
vt 0.224073 0.152595
vt 0.249802 0.125613
vt 0.110590 0.915563
vt 0.592609 0.405939
vt 0.400001 0.405940
vt 0.341928 0.915563
vt 0.267441 0.130036
vt 0.282682 0.147888
vt 0.263019 0.147676
vt 0.268884 0.139771
vt 0.272854 0.147358
vt 0.189565 0.405448
vt 0.333936 0.400722
vt 0.093789 0.498377
vt 0.093789 0.874999
vt 0.502305 0.400722
vt 0.646673 0.405448
vt 0.076986 0.881959
vt 0.520475 0.399973
vt 0.315763 0.399972
vt 0.076986 0.491418
vt 0.380443 0.152595
vt 0.406170 0.125613
vt 0.370756 0.150851
vt 0.415907 0.124171
vt 0.448888 0.148294
vt 0.382020 0.408671
vt 0.334968 0.898762
vt 0.390285 0.152595
vt 0.400307 0.133518
vt 0.400014 0.151117
vt 0.401748 0.143254
vt 0.409653 0.149119
vt 0.419388 0.147676
vt 0.425254 0.139771
vt 0.429226 0.147358
vt 0.423811 0.130036
vt 0.439054 0.147888
vt 0.553553 0.147889
vt 0.568797 0.130037
vt 0.543721 0.148294
vt 0.576701 0.124171
vt 0.621852 0.150851
vt 0.563383 0.147359
vt 0.567355 0.139774
vt 0.573221 0.147676
vt 0.582957 0.149119
vt 0.586437 0.125613
vt 0.612164 0.152595
vt 0.590861 0.143254
vt 0.592594 0.151117
vt 0.592302 0.133518
vt 0.602323 0.152595
vt 0.117550 0.898762
vt 0.610588 0.408671
vt 0.253282 0.149118
vt 0.214385 0.150851
vt 0.259537 0.124171
vt 0.292517 0.148293

vn 0.301511 -0.904534 -0.301511
vn -0.301512 -0.904534 -0.301511
vn -0.577351 -0.577350 -0.577350
vn 0.577350 -0.577350 -0.577351
vn 0.577350 0.577351 0.577350
vn 0.577350 0.577351 -0.577351
vn -0.577351 0.577350 -0.577350
vn -0.577351 0.577350 0.577350
vn -0.577351 -0.577350 -0.577350
vn 0.577350 -0.577351 -0.577351
vn -0.024112 -0.784144 -0.620110
vn 0.457014 -0.759252 -0.463331
vn -0.457013 -0.759251 -0.463331
vn 0.024112 -0.784144 -0.620111
vn -0.577351 -0.577350 0.577350
vn 0.577350 -0.577350 0.577351
vn -0.301512 -0.904534 0.301512
vn 0.301511 -0.904534 0.301511
vn 0.577350 -0.577350 0.577351
vn -0.577351 -0.577350 0.577350
vn -0.457024 -0.759244 0.463332
vn 0.024113 -0.784152 0.620100
vn -0.024114 -0.784152 0.620100
vn 0.457024 -0.759245 0.463332
vn -0.635344 -0.771995 -0.018984
vn -0.635346 -0.771994 0.018987
vn 0.635345 -0.771995 -0.018984
vn 0.635347 -0.771993 0.018987
vn 0.583080 -0.572972 -0.575952
vn 0.572695 -0.632872 0.521050
vn 0.809932 -0.586098 -0.022324
vn -0.490206 -0.715969 0.497079
vn -0.509299 -0.652856 -0.560708
vn -0.712142 -0.701701 -0.021674
vn 0.028843 -0.687397 0.725709
vn 0.029481 -0.599496 -0.799835
vn 0.416991 -0.825405 -0.380559
vn -0.416991 -0.825405 -0.380559
vn 0.517892 -0.855336 0.013699
vn -0.517892 -0.855336 0.013699
vn 0.359354 -0.862982 0.355143
vn 0.359353 -0.862982 -0.355143
vn -0.359354 -0.862982 -0.355143
vn -0.359353 -0.862982 0.355143
vn -0.018819 -0.847210 0.530926
vn -0.018819 -0.847210 -0.530925
vn 0.393814 -0.811156 -0.432362
vn 0.393814 -0.811156 0.432362
vn 0.712143 -0.701699 -0.021674
vn 0.509299 -0.652857 -0.560708
vn 0.490205 -0.715970 0.497078
vn 0.416999 -0.825400 0.380561
vn -0.417000 -0.825400 0.380561
vn -0.572694 -0.632873 0.521050
vn -0.583079 -0.572974 -0.575951
vn -0.809933 -0.586097 -0.022323
vn 0.018818 -0.847210 0.530925
vn 0.018818 -0.847210 -0.530925
vn -0.393814 -0.811155 -0.432362
vn -0.393814 -0.811155 0.432362
vn -0.490206 -0.715968 -0.497079
vn 0.028843 -0.687397 -0.725709
vn -0.517891 -0.855337 -0.013697
vn -0.712141 -0.701701 0.021678
vn -0.509308 -0.652853 0.560703
vn 0.029483 -0.599501 0.799831
vn 0.583086 -0.572969 0.575949
vn 0.809931 -0.586099 0.022328
vn 0.572695 -0.632871 -0.521051
vn -0.572694 -0.632873 -0.521050
vn -0.028844 -0.687397 -0.725709
vn -0.809933 -0.586097 0.022328
vn -0.583087 -0.572969 0.575948
vn -0.029484 -0.599500 0.799831
vn 0.490205 -0.715970 -0.497078
vn 0.509306 -0.652855 0.560703
vn 0.712143 -0.701700 0.021679
vn 0.517890 -0.855338 -0.013697
vn -0.029481 -0.599496 -0.799835
vn -0.028844 -0.687397 0.725709

mtllib couchtable.mtl

g Default
s 1
usemtl NoName,6
f 10/30/10 9/27/9 2/6/2 1/3/1
f 10/28/10 12/33/12 11/31/11 14/38/14 13/36/13 9/25/9
f 10/29/10 1/2/1 18/49/18 19/52/19
f 10/28/10 19/51/19 27/70/27 28/71/28
f 10/28/10 28/71/28 12/33/12
f 20/55/20 17/46/17 2/5/2 9/26/9
f 9/25/9 26/68/26 25/65/25 20/54/20
f 13/36/13 26/68/26 9/25/9
f 4/10/4 1/1/1 2/4/2 3/7/3
f 3/7/3 2/4/2 17/45/17 15/39/15
f 4/10/4 16/42/16 18/48/18 1/1/1
f 6/17/6 7/21/7 8/24/8 5/14/5
f 15/40/15 8/22/8 7/19/7 3/8/3
f 4/12/4 3/9/3 7/20/7 6/18/6
f 4/11/4 6/16/6 5/13/5 16/43/16
f 31/77/31 30/75/30 29/73/29
f 33/80/33 32/78/32 34/82/34
f 36/87/36 35/85/35 32/78/32 33/80/33
f 11/31/11 38/90/38 37/89/37 14/38/14
f 38/90/38 40/94/40 39/93/39 37/89/37
f 44/102/44 43/101/43 42/98/42 41/97/41
f 44/102/44 45/104/45 46/109/46 43/101/43
f 48/112/48 47/111/47 46/109/46 45/104/45
f 36/87/36 33/81/33 38/91/38 11/32/11
f 34/83/34 40/95/40 38/91/38 33/81/33
f 32/79/32 44/103/44 40/95/40 34/83/34
f 35/86/35 45/106/45 44/103/44 32/79/32
f 36/87/36 29/73/29 30/75/30 35/85/35
f 30/74/30 48/113/48 45/105/45 35/84/35
f 29/73/29 36/87/36 11/32/11 12/34/12
f 40/94/40 44/102/44 41/97/41 39/93/39
f 49/115/49 51/119/51 50/117/50
f 55/126/55 54/124/54 56/127/56
f 41/97/41 42/98/42 58/132/58 57/131/57
f 60/138/60 57/131/57 58/132/58 59/135/59
f 14/37/14 79/173/79 55/126/55 13/35/13
f 56/128/56 26/67/26 13/35/13 55/126/55
f 54/125/54 60/137/60 26/67/26 56/128/56
f 57/130/57 60/137/60 54/125/54 80/176/80
f 41/96/41 57/129/57 80/174/80 51/118/51
f 49/114/49 39/92/39 41/96/41 51/118/51
f 50/116/50 37/88/37 39/92/39 49/114/49
f 37/88/37 50/116/50 79/173/79 14/37/14
f 79/173/79 50/117/50 51/119/51 80/175/80
f 26/68/26 60/138/60 59/135/59 25/65/25
f 31/76/31 28/72/28 48/113/48 30/74/30
f 29/73/29 12/34/12 28/72/28 31/76/31
f 28/71/28 27/70/27 47/111/47 48/112/48
f 79/173/79 80/175/80 54/124/54 55/126/55
f 18/50/18 17/47/17 20/56/20 19/53/19
f 23/62/23 24/64/24 19/51/19 20/54/20 21/57/21 22/59/22
f 27/70/27 19/51/19 24/64/24
f 21/57/21 20/54/20 25/65/25
f 17/45/17 18/48/18 16/42/16 15/39/15
f 5/15/5 8/23/8 15/41/15 16/44/16
f 53/123/53 23/62/23 22/59/22 52/120/52
f 62/141/62 61/139/61 43/100/43 46/107/46
f 64/146/64 63/144/63 43/100/43 61/139/61
f 65/148/65 53/122/53 63/144/63 64/146/64
f 66/150/66 23/61/23 53/122/53 65/148/65
f 62/142/62 66/150/66 65/149/65 61/140/61
f 67/151/67 24/63/24 23/61/23 66/150/66
f 68/153/68 27/69/27 24/63/24 67/151/67
f 69/155/69 47/110/47 27/69/27 68/153/68
f 69/155/69 62/143/62 46/108/46 47/110/47
f 58/133/58 71/158/71 70/156/70 59/136/59
f 72/161/72 25/66/25 59/136/59 70/156/70
f 73/163/73 21/58/21 25/66/25 72/161/72
f 22/60/22 21/58/21 73/163/73 74/164/74
f 77/169/77 76/167/76 75/165/75
f 71/159/71 75/165/75 76/167/76 74/164/74
f 72/162/72 70/157/70 73/163/73
f 77/170/77 78/172/78 52/121/52 76/168/76
f 52/121/52 22/60/22 74/164/74 76/168/76
f 42/99/42 75/166/75 71/160/71 58/134/58
f 75/166/75 42/99/42 78/172/78 77/170/77
f 43/101/43 63/145/63 78/171/78 42/98/42
f 63/145/63 53/123/53 52/120/52 78/171/78
f 68/152/68 67/151/67 69/154/69
f 62/142/62 69/154/69 67/151/67 66/150/66
f 64/147/64 61/140/61 65/149/65
f 71/159/71 74/164/74 73/163/73 70/157/70

# The end.
